<svg id="Capa_1" enable-background="new 0 0 512 512" height="512" viewBox="0 0 512 512" width="512" xmlns="http://www.w3.org/2000/svg"><g><path fill="#008000"  d="m500.806 288.343-30.702-14.294c.606-6.41.896-12.305.896-18.049s-.29-11.639-.896-18.049l30.702-14.294c6.872-3.2 10.277-11.024 7.935-18.234l-18.541-57.063c-2.343-7.21-9.696-11.539-17.137-10.088l-33.124 6.459c-6.214-10.21-13.352-19.97-21.337-29.175l16.44-29.616c3.679-6.628 1.835-14.959-4.298-19.415l-48.541-35.267c-6.133-4.456-14.626-3.635-19.793 1.912l-23.114 24.816c-11.134-4.698-22.609-8.438-34.297-11.176l-4.109-33.63c-.92-7.524-7.309-13.18-14.89-13.18h-60c-7.581 0-13.97 5.656-14.889 13.181l-4.109 33.63c-11.689 2.738-23.163 6.477-34.297 11.176l-23.114-24.817c-5.167-5.547-13.66-6.368-19.793-1.912l-48.541 35.267c-6.133 4.456-7.977 12.787-4.298 19.415l16.44 29.616c-7.986 9.205-15.124 18.965-21.337 29.175l-33.124-6.459c-7.441-1.451-14.794 2.878-17.137 10.088l-18.542 57.064c-2.343 7.21 1.062 15.034 7.935 18.234l30.702 14.294c-.606 6.409-.896 12.304-.896 18.048s.29 11.639.896 18.049l-30.702 14.294c-6.872 3.2-10.277 11.024-7.935 18.234l18.541 57.063c2.343 7.21 9.696 11.539 17.137 10.088l33.124-6.459c6.214 10.21 13.352 19.969 21.338 29.174l-16.44 29.617c-3.679 6.628-1.835 14.959 4.298 19.415l48.541 35.267c6.133 4.456 14.626 3.635 19.793-1.912l23.114-24.816c11.134 4.698 22.609 8.438 34.297 11.176l4.109 33.63c.919 7.524 7.308 13.18 14.889 13.18h60c7.581 0 13.97-5.656 14.889-13.181l4.109-33.63c11.689-2.738 23.163-6.477 34.297-11.176l23.114 24.816c5.167 5.547 13.66 6.368 19.793 1.912l48.541-35.267c6.133-4.456 7.977-12.787 4.298-19.415l-16.44-29.616c7.986-9.205 15.124-18.965 21.337-29.175l33.124 6.459c7.441 1.451 14.794-2.878 17.137-10.088l18.541-57.064c2.343-7.208-1.062-15.033-7.934-18.232zm-244.806 112.657c-79.953 0-145-65.047-145-145s65.047-145 145-145 145 65.047 145 145-65.047 145-145 145z"/><g><path fill="#008000"  d="m209.773 275.743c-5.542-8.583-8.773-18.789-8.773-29.743v-20c0-30.327 24.673-55 55-55s55 24.673 55 55v20c0 10.954-3.231 21.16-8.773 29.743 21.987 8.235 39.097 26.509 45.747 49.215 14.451-19.227 23.026-43.109 23.026-68.958 0-63.411-51.589-115-115-115s-115 51.589-115 115c0 25.849 8.575 49.731 23.026 68.958 6.65-22.706 23.759-40.98 45.747-49.215z"/><path fill="#008000"  d="m281 246v-20c0-13.785-11.215-25-25-25s-25 11.215-25 25v20c0 13.785 11.215 25 25 25s25-11.215 25-25z"/><path fill="#008000"  d="m321 346c0-24.813-20.187-45-45-45h-40c-24.813 0-45 20.187-45 45v4.815c18.504 12.724 40.895 20.185 65 20.185s46.496-7.461 65-20.185z"/></g></g></svg>