<svg height="511pt" viewBox="1 -70 511.999 511" width="511pt" xmlns="http://www.w3.org/2000/svg"><path fill="#2196F3" d="m313.300781 162.496094h18.449219c4.140625 0 7.492188-3.351563 7.492188-7.492188s-3.351563-7.492187-7.492188-7.492187h-18.449219c-4.140625 0-7.492187 3.351562-7.492187 7.492187s3.351562 7.492188 7.492187 7.492188zm0 0"/><path fill="#2196F3" d="m404.601562 162.496094c4.140626 0 7.496094-3.351563 7.496094-7.492188s-3.355468-7.492187-7.496094-7.492187h-50.574218c-4.136719 0-7.492188 3.351562-7.492188 7.492187s3.355469 7.492188 7.492188 7.492188zm0 0"/><path fill="#2196F3" d="m313.300781 197.996094h132.121094c4.136719 0 7.492187-3.351563 7.492187-7.492188s-3.355468-7.492187-7.492187-7.492187h-132.121094c-4.140625 0-7.492187 3.351562-7.492187 7.492187s3.351562 7.492188 7.492187 7.492188zm0 0"/><path fill="#2196F3" d="m313.300781 224.5h132.121094c4.136719 0 7.492187-3.351562 7.492187-7.492188 0-4.140624-3.355468-7.492187-7.492187-7.492187h-132.121094c-4.140625 0-7.492187 3.351563-7.492187 7.492187 0 4.140626 3.351562 7.492188 7.492187 7.492188zm0 0"/><path fill="#2196F3" d="m313.300781 251.003906h132.121094c4.136719 0 7.492187-3.351562 7.492187-7.492187s-3.355468-7.492188-7.492187-7.492188h-132.121094c-4.140625 0-7.492187 3.351563-7.492187 7.492188s3.351562 7.492187 7.492187 7.492187zm0 0"/><path fill="#2196F3" d="m313.300781 277.191406h63.738281c4.140626 0 7.492188-3.355468 7.492188-7.496094 0-4.136718-3.351562-7.492187-7.492188-7.492187h-63.738281c-4.140625 0-7.492187 3.355469-7.492187 7.492187 0 4.140626 3.351562 7.496094 7.492187 7.496094zm0 0"/><path fill="#2196F3" d="m382.859375 74.6875h-32.640625c-23.621094 0-45.769531 6.386719-64.839844 17.507812-16.089844-53.003906-65.40625-91.695312-123.597656-91.695312h-32.640625c-71.207031 0-129.140625 57.933594-129.140625 129.140625 0 71.210937 57.933594 129.144531 129.140625 129.144531h22.351563v28.835938c0 3.984375 2.382812 7.53125 6.074218 9.039062 1.203125.492188 2.460938.730469 3.703125.730469 2.566407 0 5.082031-1.019531 6.960938-2.941406l44.34375-45.277344c.960937-.980469 2.0625-1.761719 3.277343-2.328125 3.695313-1.71875 7.304688-3.609375 10.816407-5.667969 5.160156 16.949219 13.792969 32.820313 25.53125 46.507813 2.691406 3.144531 7.421875 3.507812 10.5625.8125 3.144531-2.691406 3.507812-7.425782.8125-10.566406-11.390625-13.285157-19.480469-28.890626-23.824219-45.53125 9.964844-7.585938 18.847656-16.601563 26.289062-26.765626 2.445313-3.339843 1.71875-8.03125-1.621093-10.472656-3.339844-2.445312-8.027344-1.722656-10.472657 1.621094-11.492187 15.699219-26.847656 28.3125-44.40625 36.472656-2.859374 1.328125-5.441406 3.15625-7.671874 5.433594l-35.386719 36.136719v-17.476563c0-7.472656-6.078125-13.550781-13.546875-13.550781h-23.792969c-62.945313 0-114.15625-51.210937-114.15625-114.15625s51.210937-114.15625 114.15625-114.15625h32.640625c62.945312 0 114.15625 51.210937 114.15625 114.15625 0 12.972656-2.1875 25.714844-6.5 37.875-1.382812 3.898437.65625 8.179687 4.558594 9.566406 3.894531 1.382813 8.179687-.65625 9.566406-4.558593 4.882812-13.769532 7.359375-28.199219 7.359375-42.882813 0-7.542969-.65625-14.933594-1.902344-22.125 17.699219-11.289063 38.695313-17.84375 61.199219-17.84375h32.640625c62.945313 0 114.15625 51.210937 114.15625 114.15625 0 62.949219-51.210937 114.15625-114.15625 114.15625h-23.792969c-7.46875 0-13.546875 6.078125-13.546875 13.550781v17.476563l-35.386719-36.136719c-2.230468-2.277344-4.808593-4.105469-7.671874-5.433594-4.945313-2.300781-9.777344-4.980468-14.355469-7.972656-3.464844-2.265625-8.105469-1.292969-10.371094 2.175781-2.265625 3.460938-1.289063 8.105469 2.175781 10.371094 5.175782 3.382813 10.640625 6.417969 16.238282 9.015625 1.214843.566406 2.316406 1.351562 3.277343 2.328125l44.339844 45.28125c1.882813 1.917969 4.394531 2.9375 6.964844 2.9375 1.242187 0 2.5-.238281 3.703125-.730469 3.6875-1.503906 6.074218-5.054687 6.074218-9.039062v-28.835938h22.347657c71.210937 0 129.144531-57.933594 129.144531-129.144531 0-71.207031-57.933594-129.140625-129.140625-129.140625zm0 0"/><path fill="#2196F3" d="m141.167969 172.027344c-6.277344 0-11.359375 5.234375-11.359375 11.511718 0 6.128907 4.933594 11.511719 11.359375 11.511719 6.429687 0 11.511719-5.382812 11.511719-11.511719 0-6.277343-5.230469-11.511718-11.511719-11.511718zm0 0"/><path fill="#2196F3" d="m158.210938 136.898438c4.035156-3.140626 16.742187-13.304688 16.742187-27.355469s-12.707031-24.667969-31.839844-24.667969c-20.183593 0-29.453125 11.960938-29.453125 20.03125 0 5.832031 4.933594 8.523438 8.972656 8.523438 8.074219 0 4.78125-11.511719 20.03125-11.511719 7.472657 0 13.453126 3.289062 13.453126 10.167969 0 8.070312-8.371094 12.703124-13.304688 16.890624-4.335938 3.738282-10.015625 9.867188-10.015625 22.722657 0 7.773437 2.09375 10.015625 8.222656 10.015625 7.324219 0 8.820313-3.289063 8.820313-6.128906 0-7.773438.148437-12.257813 8.371094-18.6875zm0 0"/></svg>